HIERARCHY
ROOT Hips
{
 OFFSET 0.000000 0.000000 0.000000
 CHANNELS 6 Xposition Yposition Zposition Yrotation Xrotation Zrotation
 JOINT Chest
 {
  OFFSET 0.000000 9.585900 0.002600
  CHANNELS 3 Yrotation Xrotation Zrotation
  JOINT Chest2
  {
   OFFSET 0.000000 9.601200 -0.005300
   CHANNELS 3 Yrotation Xrotation Zrotation
   JOINT Chest3
   {
    OFFSET 0.000000 9.561800 0.000000
    CHANNELS 3 Yrotation Xrotation Zrotation
    JOINT Chest4
    {
     OFFSET 0.000000 9.552100 0.000000
     CHANNELS 3 Yrotation Xrotation Zrotation
     JOINT Neck
     {
      OFFSET 0.000000 14.453000 0.000000
      CHANNELS 3 Yrotation Xrotation Zrotation
      JOINT Head
      {
       OFFSET 0.000000 8.936500 -0.011300
       CHANNELS 3 Yrotation Xrotation Zrotation
       End Site
       {
        OFFSET 0.000000 17.073600 -0.006000
       }
      }
     }
     JOINT RightCollar
     {
      OFFSET -2.921100 9.558500 0.000000
      CHANNELS 3 Yrotation Xrotation Zrotation
      JOINT RightShoulder
      {
       OFFSET -13.519700 0.000000 0.000000
       CHANNELS 3 Yrotation Xrotation Zrotation
       JOINT RightElbow
       {
        OFFSET 0.000000 -29.696600 0.000000
        CHANNELS 3 Yrotation Xrotation Zrotation
        JOINT RightWrist
        {
         OFFSET 0.000000 -24.004700 0.000000
         CHANNELS 3 Yrotation Xrotation Zrotation
         End Site
         {
          OFFSET 0.000000 -17.728500 0.000000
         }
        }
       }
      }
     }
     JOINT LeftCollar
     {
      OFFSET 2.921100 9.558500 0.000000
      CHANNELS 3 Yrotation Xrotation Zrotation
      JOINT LeftShoulder
      {
       OFFSET 13.519700 0.000000 0.000000
       CHANNELS 3 Yrotation Xrotation Zrotation
       JOINT LeftElbow
       {
        OFFSET 0.000000 -29.696600 0.000000
        CHANNELS 3 Yrotation Xrotation Zrotation
        JOINT LeftWrist
        {
         OFFSET 0.000000 -24.004700 0.000000
         CHANNELS 3 Yrotation Xrotation Zrotation
         End Site
         {
          OFFSET 0.000000 -17.728500 0.000000
         }
        }
       }
      }
     }
    }
   }
  }
 }
 JOINT RightHip
 {
  OFFSET -7.771700 -0.012900 -0.001300
  CHANNELS 3 Yrotation Xrotation Zrotation
  JOINT RightKnee
  {
   OFFSET 0.000000 -40.869800 0.001200
   CHANNELS 3 Yrotation Xrotation Zrotation
   JOINT RightAnkle
   {
    OFFSET 0.000000 -39.717900 0.002100
    CHANNELS 3 Yrotation Xrotation Zrotation
    JOINT RightToe
    {
     OFFSET 0.000000 -4.965400 11.033500
     CHANNELS 3 Yrotation Xrotation Zrotation
     End Site
     {
      OFFSET 0.000000 -1.423100 5.872300
     }
    }
   }
  }
 }
 JOINT LeftHip
 {
  OFFSET 7.771700 -0.012900 -0.001300
  CHANNELS 3 Yrotation Xrotation Zrotation
  JOINT LeftKnee
  {
   OFFSET 0.000000 -40.869800 0.001200
   CHANNELS 3 Yrotation Xrotation Zrotation
   JOINT LeftAnkle
   {
    OFFSET 0.000000 -39.717900 0.002100
    CHANNELS 3 Yrotation Xrotation Zrotation
    JOINT LeftToe
    {
     OFFSET 0.000000 -4.965400 11.033500
     CHANNELS 3 Yrotation Xrotation Zrotation
     End Site
     {
      OFFSET 0.000000 -1.423100 5.872300
     }
    }
   }
  }
 }
}
MOTION
Frames: 11
Frame Time: 0.008333
0.000000 85.388000 0.000000 0.000000 -5.767877 0.000000 0.000000 11.653817 0.000000 0.000000 -5.885947 0.000000 0.000000 -0.000000 0.000000 0.000000 -0.000000 0.000000 0.000000 12.528835 0.000000 0.000000 0.711642 0.000000 0.000000 -0.000000 0.000000 0.000000 0.000000 -90.000000 0.000000 -2.309062 0.000000 0.000000 2.309062 0.000000 0.000000 -0.000000 0.000000 0.000000 -0.000000 90.000000 0.000000 -2.309062 0.000000 0.000000 2.309062 0.000000 0.000000 8.520406 0.000000 0.000000 1.905762 0.000000 -0.000000 -4.658285 0.000000 0.000000 -0.000000 0.000000 0.000000 8.520406 0.000000 0.000000 1.905762 0.000000 -0.000000 -4.658285 0.000000 0.000000 -0.000000 0.000000
-13.952210 57.865358 56.057269 -179.591206 -27.890013 -1.623000 2.722410 17.352268 4.085299 0.270727 1.959249 0.269761 0.471070 3.250240 0.465239 2.506535 15.407715 2.484452 -2.292976 9.749338 -2.847592 -3.141666 -17.706854 -4.476158 2.401864 0.209805 -1.145272 -11.158890 -18.472063 -3.973010 52.491031 -49.374642 -77.231121 13.831888 -7.684822 -48.954796 -4.418471 1.218977 -2.603114 28.637134 -12.182832 -6.746351 -66.041466 -50.273523 93.980210 -15.782081 4.355401 25.477667 9.641417 -43.360287 -3.293062 -2.975588 67.545786 -5.843955 3.608499 6.009474 9.380499 -0.424407 0.553625 -0.214411 -8.703832 -51.224444 1.851905 28.747346 67.779889 29.127147 -12.629067 33.887165 0.239818 0.945821 -22.218035 -6.081385
-13.944813 57.862867 56.060415 -179.611686 -27.882735 -1.637397 2.739012 17.344413 4.101893 0.264143 1.956230 0.263674 0.482797 3.252222 0.473744 2.502648 15.402659 2.478087 -2.305024 9.748202 -2.846917 -3.218594 -17.725792 -4.471873 2.383819 0.178691 -1.149684 -11.095133 -18.474590 -3.979061 52.460964 -49.343103 -77.196276 13.858277 -7.722456 -48.908728 -4.442901 1.200324 -2.588411 28.641280 -12.182974 -6.751455 -66.065470 -50.273671 94.009981 -15.787847 4.359797 25.474761 9.612619 -43.371281 -3.255788 -2.954599 67.539230 -5.824272 3.621992 6.013873 9.378472 -0.430246 0.552223 -0.220645 -8.742194 -51.250714 1.895710 28.790008 67.787171 29.177155 -12.605545 33.950059 0.261121 0.924012 -22.255648 -6.106796
-13.936644 57.857947 56.067889 -179.603261 -27.846732 -1.667188 2.706894 17.305961 4.095856 0.283211 1.956727 0.276969 0.480802 3.250943 0.470187 2.516742 15.404583 2.486585 -2.323154 9.743063 -2.851108 -3.295528 -17.743735 -4.467602 2.383293 0.175494 -1.149248 -11.045851 -18.516891 -3.993102 52.413761 -49.308811 -77.147495 13.881762 -7.742779 -48.876611 -4.486971 1.148633 -2.558705 28.653810 -12.160483 -6.769245 -66.063949 -50.267926 94.029428 -15.787615 4.350278 25.478027 9.546309 -43.410844 -3.219185 -2.902801 67.532263 -5.775352 3.631974 6.020774 9.371763 -0.436297 0.550054 -0.229786 -8.805105 -51.299004 1.939032 28.738330 67.776748 29.177657 -12.677067 34.033325 0.149493 0.963830 -22.289538 -6.093274
-13.929509 57.856037 56.069313 -179.667459 -27.853503 -1.655744 2.756172 17.309368 4.102233 0.292491 1.957248 0.283360 0.471013 3.243939 0.460972 2.527576 15.396400 2.484356 -2.354687 9.739697 -2.853574 -3.355018 -17.747136 -4.460635 2.376509 0.171423 -1.138310 -10.997675 -18.533243 -4.009999 52.416976 -49.272998 -77.124752 13.890294 -7.740792 -48.851735 -4.504620 1.141077 -2.534865 28.657805 -12.167346 -6.778287 -66.065776 -50.273512 94.038931 -15.781996 4.343161 25.482257 9.571674 -43.407410 -3.207318 -2.897416 67.520402 -5.739415 3.644421 6.028808 9.342739 -0.424580 0.550628 -0.223869 -8.774981 -51.301434 1.966237 28.734285 67.775171 29.185386 -12.691812 34.110967 0.178556 0.988466 -22.340456 -6.147141
-13.923121 57.853176 56.072238 -179.723613 -27.848644 -1.643207 2.797465 17.300873 4.103879 0.293881 1.956290 0.282673 0.462469 3.231343 0.451149 2.548533 15.393681 2.492182 -2.387422 9.738079 -2.858161 -3.367769 -17.738504 -4.453943 2.373221 0.167523 -1.129708 -10.958280 -18.547227 -4.030571 52.426757 -49.233545 -77.097076 13.886184 -7.738325 -48.834990 -4.524099 1.138565 -2.514361 28.663746 -12.175744 -6.784232 -66.053545 -50.274210 94.035520 -15.742297 4.308774 25.501564 9.603659 -43.416724 -3.193043 -2.886787 67.514836 -5.719931 3.635516 6.034857 9.339362 -0.422433 0.549797 -0.223790 -8.752484 -51.325035 1.975697 28.778478 67.775900 29.245077 -12.654258 34.188768 0.232546 0.968859 -22.386199 -6.198574
-13.912849 57.849879 56.075918 -179.740902 -27.835527 -1.672369 2.814855 17.284175 4.132733 0.290730 1.952776 0.280685 0.465511 3.229426 0.450756 2.555582 15.371307 2.484205 -2.418603 9.751047 -2.857146 -3.380708 -17.731771 -4.447849 2.371448 0.178107 -1.118151 -10.923911 -18.563649 -4.049598 52.435568 -49.201126 -77.067051 13.878716 -7.742140 -48.820537 -4.537140 1.155196 -2.492199 28.673089 -12.183100 -6.788750 -66.032698 -50.267684 94.017924 -15.717127 4.285934 25.512437 9.579794 -43.434614 -3.148017 -2.876081 67.508518 -5.698751 3.638522 6.044974 9.336660 -0.425346 0.541289 -0.224946 -8.793409 -51.363765 2.006177 28.832323 67.776217 29.354483 -12.656205 34.278437 0.215063 0.964674 -22.435402 -6.232549
-13.906481 57.847543 56.077273 -179.783659 -27.835250 -1.666896 2.854342 17.281729 4.144644 0.283683 1.949518 0.273614 0.466602 3.226091 0.452465 2.566230 15.367178 2.487204 -2.454011 9.746373 -2.865556 -3.445419 -17.736520 -4.442949 2.369372 0.145515 -1.129350 -10.894971 -18.552964 -4.063098 52.439511 -49.168061 -77.033891 13.866992 -7.753825 -48.810152 -4.542580 1.162101 -2.485713 28.675672 -12.200816 -6.790554 -66.055848 -50.273461 94.041634 -15.728976 4.300000 25.494114 9.583265 -43.441973 -3.143295 -2.826388 67.508435 -5.623988 3.649582 6.058629 9.311210 -0.424698 0.525786 -0.214629 -8.775347 -51.370111 2.023852 28.835286 67.775166 29.379662 -12.680341 34.307616 0.206068 0.980044 -22.436256 -6.256365
-13.898443 57.845505 56.077912 -179.824684 -27.836035 -1.672437 2.885728 17.278400 4.157983 0.276655 1.944287 0.270502 0.476715 3.227903 0.458325 2.577110 15.369257 2.491237 -2.490465 9.733343 -2.876462 -3.587886 -17.753874 -4.442761 2.368997 0.138646 -1.131087 -10.880563 -18.559373 -4.072957 52.488469 -49.153624 -77.036599 13.861769 -7.741206 -48.809524 -4.554880 1.144654 -2.476248 28.686067 -12.201048 -6.783859 -66.072029 -50.280109 94.063491 -15.739631 4.308541 25.471081 9.587785 -43.448431 -3.125452 -2.785491 67.507816 -5.556618 3.649238 6.073384 9.291882 -0.418997 0.514526 -0.218724 -8.773964 -51.383566 2.048388 28.884275 67.780347 29.456182 -12.678906 34.344697 0.221404 0.974717 -22.450378 -6.292776
-13.890359 57.843735 56.077889 -179.855688 -27.837049 -1.682450 2.908109 17.275061 4.175700 0.285958 1.946344 0.273600 0.472092 3.225438 0.455724 2.583263 15.361774 2.490800 -2.526176 9.730428 -2.884374 -3.627193 -17.755796 -4.440496 2.370793 0.139364 -1.129044 -10.847186 -18.593400 -4.105583 52.554765 -49.125068 -77.029318 13.841430 -7.691718 -48.819474 -4.569737 1.134227 -2.463960 28.703279 -12.199164 -6.774144 -66.097982 -50.276174 94.085714 -15.748795 4.319009 25.449706 9.584655 -43.449998 -3.115990 -2.803445 67.502537 -5.530564 3.672234 6.075208 9.261287 -0.409604 0.515062 -0.221623 -8.790261 -51.394305 2.077495 28.946211 67.782738 29.542244 -12.675531 34.369815 0.231215 0.962232 -22.455025 -6.322672
-13.876420 57.843211 56.075868 -179.888819 -27.848396 -1.725154 2.944923 17.282264 4.229159 0.286278 1.945224 0.273307 0.480173 3.226625 0.459104 2.577847 15.354622 2.486027 -2.558504 9.725782 -2.891188 -3.714755 -17.767332 -4.438200 2.373777 0.127522 -1.131717 -10.817133 -18.607376 -4.129363 52.558645 -49.108709 -77.002680 13.843820 -7.705891 -48.820200 -4.589624 1.104016 -2.445592 28.735604 -12.179140 -6.760467 -66.121293 -50.265539 94.111575 -15.753534 4.326289 25.416800 9.544495 -43.450205 -3.048432 -2.790141 67.502355 -5.490918 3.723233 6.085005 9.256062 -0.443718 0.497550 -0.232239 -8.880560 -51.397948 2.175537 29.058856 67.788256 29.661976 -12.610216 34.444779 0.296499 0.909269 -22.509614 -6.378919
